<?xml version="1.0" encoding="utf-8"?>
<!-- Generator: Adobe Illustrator 16.0.0, SVG Export Plug-In . SVG Version: 6.00 Build 0)  -->
<!DOCTYPE svg PUBLIC "-//W3C//DTD SVG 1.1//EN" "http://www.w3.org/Graphics/SVG/1.1/DTD/svg11.dtd">
<svg version="1.1" id="レイヤー_1" xmlns="http://www.w3.org/2000/svg" xmlns:xlink="http://www.w3.org/1999/xlink" x="0px"
	 y="0px" width="529.025px" height="197.013px" viewBox="0 0 529.025 197.013" enable-background="new 0 0 529.025 197.013"
	 xml:space="preserve">
<g>
	<g>
		<g>
			<path fill="#0E9393" d="M18.918,37.968C6.359,36.937-1.975,42.418,0.406,50.156l18.882,61.369l32.461-70.851L18.918,37.968z"/>
			<path fill="#0E9393" d="M43.851,191.308c2.374,7.737,12.354,7.587,22.166-0.34l37.32-30.131l-73.255-14.24L43.851,191.308z"/>
			<path fill="#09358B" d="M12.055,127.32c-3.648,7.971,0.391,15.853,8.997,17.523l9.03,1.754l-10.794-35.072L12.055,127.32z"/>
			<path fill="#09358B" d="M152.286,170.341c8.596,1.669,12.129-3.775,7.867-12.099l-15.721-30.595l-41.096,33.189L152.286,170.341z
				"/>
			<path fill="#09358B" d="M82.141,6.432c-4.268-8.316-10.758-8.606-14.4-0.647l-15.991,34.89l50.115,4.131L82.141,6.432z"/>
			<polygon fill="#015E63" points="51.749,40.674 19.288,111.525 30.082,146.597 103.337,160.837 144.433,127.648 101.864,44.805 
							"/>
		</g>
		<g>
			<polygon fill="#0E9393" points="167.128,50.182 101.864,44.805 144.433,127.648 181.705,97.543 			"/>
			<path fill="#0E9393" d="M210.728,53.777l-36.143-2.978l12.94,42.043l28.213-22.783C225.556,62.129,223.297,54.808,210.728,53.777
				z"/>
		</g>
	</g>
	<g>
		<path fill="#FFFFFF" d="M303.177,81.518c-5.264,3.848-9.207,5.719-11.838,5.613c-2.327-0.197-4.151-1.462-5.464-3.792
			c-0.914-1.518-1.367-2.683-1.367-3.491c0-1.519,1.061-2.581,3.189-3.188c8.195-2.632,13.86-7.338,16.996-14.116
			c1.926-3.945,2.888-7.489,2.888-10.625c0-4.452-1.925-6.679-5.771-6.679c-5.972,0-14.268,6.731-24.892,20.188
			c-4.958,6.374-9.235,12.548-12.825,18.52c-3.593,5.97-6.552,11.838-8.881,17.607c-1.924,4.856-3.52,8.906-4.781,12.141
			c-1.27,3.239-2.154,5.719-2.657,7.439c-2.426,7.584-3.642,14.367-3.642,20.339c0,6.675,2.021,11.283,6.07,13.814
			c1.011,0.708,2.278,1.06,3.795,1.06c4.249,0,9.613-2.633,16.09-7.895c5.869-4.753,10.066-9.309,12.598-13.659
			c2.125-3.544,3.797-5.309,5.012-5.309c1.211,0,2.353,0.753,3.412,2.271c1.063,1.519,1.596,2.937,1.596,4.251
			c0,1.52-0.506,2.935-1.518,4.252c-14.269,19.929-28.032,29.901-41.286,29.901c-4.252,0-8.403-1.167-12.446-3.492
			c-7.687-4.657-11.537-13.153-11.537-25.497c0-11.939,3.29-25.048,9.867-39.314c11.128-23.78,24.133-42.048,39.01-54.796
			c9.914-8.398,19.479-12.6,28.688-12.6c5.162,0,9.156,1.722,11.991,5.162c2.832,3.441,4.247,7.793,4.247,13.051
			c0,4.759-1.112,9.364-3.34,13.816C313.651,72.157,309.247,77.167,303.177,81.518z"/>
		<path fill="#FFFFFF" d="M362.829,163.929c-4.452,4.455-9.409,7.033-14.877,7.743c-9.209,1.519-16.013,1.264-20.413-0.757
			c-4.404-2.025-6.604-5.063-6.604-9.11c0-1.013,0.152-2.227,0.457-3.645c0.505-2.325,1.135-4.755,1.894-7.286
			c0.759-2.527,1.692-5.258,2.811-8.196c1.618-4.554,2.833-7.483,3.641-8.806c0.709-1.209,0.709-2.573,0-4.092
			c-0.704-1.418-2.731-3.038-6.071-4.861c-0.811-0.504-1.467-0.049-1.971,1.366c-2.534,6.276-4.453,11.007-5.771,14.194
			c-1.317,3.185-2.022,4.884-2.125,5.081c-4.247,8.404-9.563,15.231-15.937,20.493c-3.943,3.038-8.145,4.908-12.6,5.618
			c-0.604,0.202-1.061-0.101-1.366-0.911c-0.706-1.52-1.06-3.188-1.06-5.009c0-0.912,0.201-1.418,0.607-1.519
			c3.641-0.812,6.576-2.023,8.803-3.643c1.616-1.217,3.897-3.49,6.83-6.832c2.023-2.529,4.555-6.877,7.59-13.053
			c3.339-6.775,5.917-13.455,7.74-20.036c0.099-0.405,0.176-0.685,0.229-0.835c0.049-0.152,0.074-0.278,0.074-0.379
			c-0.104-0.603-0.453-1.515-1.06-2.729c-0.607-1.217-0.915-2.482-0.915-3.804c0-0.398,0.024-0.851,0.078-1.362
			c0.049-0.506,0.125-1.008,0.229-1.514c1.111-5.772,3.994-8.604,8.651-8.503c3.944,0.101,6.123,2.578,6.525,7.437
			c0.103,0.912-0.15,2.227-0.759,3.942c-0.203,0.606-0.203,1.068,0,1.373c0.2,0.303,0.655,0.631,1.367,0.987
			c0.704,0.352,1.67,0.811,2.881,1.363c1.215,0.554,2.735,1.339,4.554,2.352c3.645,2.024,6.075,3.543,7.29,4.554
			c2.021,1.72,2.829,3.897,2.425,6.529c-0.3,1.615-2.073,6.375-5.313,14.265c-1.618,3.853-2.855,6.961-3.716,9.34
			c-0.861,2.376-1.396,4.021-1.595,4.934c-0.608,2.93,0.555,4.701,3.488,5.309c1.216,0.305,3.645,0.354,7.286,0.152
			c1.924-0.102,4.401-1.013,7.438-2.733c3.643-2.021,6.427-4.401,8.352-7.134c0.506-0.607,0.909-0.455,1.209,0.457
			c0.709,1.723,0.962,3.695,0.766,5.92C363.69,162.312,363.335,163.422,362.829,163.929z"/>
		<path fill="#FFFFFF" d="M401.076,163.929c-4.245,4.254-9.209,6.832-14.875,7.743c-3.238,0.607-6.275,0.912-9.109,0.912
			c-4.553,0-8.345-0.71-11.383-2.128c-4.049-2.225-6.067-6.02-6.067-11.384c0-0.706,0.023-1.519,0.072-2.431
			c0.053-0.912,0.132-1.971,0.229-3.188c0.811-8.091,3.539-20.339,8.195-36.727c3.744-13.158,7.235-23.837,10.476-32.03
			c3.436-9.11,8.296-13.407,14.572-12.901c2.12,0.204,3.867,1.189,5.232,2.958c1.37,1.771,2.05,4.021,2.05,6.754
			c0,1.723-0.303,3.545-0.91,5.464c-2.128,6.278-5.616,12.651-10.472,19.127c-0.608,0.809-1.671,2.937-3.188,6.375
			c-5.671,17.002-9.619,30.509-11.837,40.525c-0.71,2.836-1.065,4.81-1.065,5.923c0,1.317,0.355,2.323,1.065,3.033
			c1.414,1.418,4.853,2.126,10.317,2.126c1.924,0,4.402-0.912,7.439-2.733c1.722-1.008,3.285-2.095,4.703-3.267
			c1.416-1.158,2.631-2.449,3.645-3.867c0.506-0.607,0.91-0.455,1.213,0.457c0.709,1.723,0.962,3.695,0.762,5.92
			C401.937,162.312,401.583,163.422,401.076,163.929z"/>
		<path fill="#FFFFFF" d="M477.423,163.929c-4.248,4.254-9.21,6.832-14.878,7.743c-1.316,0.202-2.604,0.378-3.867,0.532
			c-1.268,0.147-2.604,0.225-4.023,0.225c-6.68,0-11.588-1.062-14.722-3.188c-2.026-1.415-3.038-3.693-3.038-6.829
			c0-1.62,0.305-3.947,0.913-6.984c0.099-0.403,0.151-0.809,0.151-1.214c0-0.303-0.102-0.354-0.305-0.15
			c-0.104,0.101-0.253,0.253-0.455,0.455c-0.201,0.201-0.405,0.506-0.606,0.909c-7.891,11.337-15.886,17.001-23.983,17.001
			c-2.025,0-4-0.305-5.92-0.906c-4.555-1.62-6.828-5.164-6.828-10.629c0-0.507,0.025-1.086,0.071-1.744
			c0.057-0.663,0.13-1.393,0.231-2.203c0.401-4.758,4.752-19.681,13.052-44.775c0.706-2.227,2.33-3.34,4.856-3.34
			c1.722,0,3.693,0.352,5.919,1.063c4.047,1.214,6.075,2.833,6.075,4.854c0,0.607-0.258,1.519-0.757,2.732
			c-0.607,1.418-1.444,3.495-2.509,6.226c-1.06,2.732-2.407,6.223-4.019,10.47c-3.85,9.923-5.975,16.043-6.376,18.372
			c-0.205,1.212-0.379,2.253-0.536,3.11c-0.152,0.86-0.224,1.545-0.224,2.051c0,2.227,1.366,3.34,4.098,3.34
			c1.516,0,3.639-1.369,6.377-4.102c3.236-3.239,7.383-10.523,12.446-21.86c1.921-4.348,3.489-8.118,4.705-11.304
			c1.215-3.188,2.171-5.896,2.88-8.123c1.113-3.945,4.252-5.665,9.415-5.159c4.751,0.507,7.135,1.671,7.135,3.492
			c0,1.013-0.36,2.178-1.063,3.487c-0.712,1.317-2.682,6.887-5.921,16.695c-3.44,10.122-5.414,16.298-5.921,18.52
			c-0.912,4.456-0.758,7.289,0.457,8.504c1.921,1.924,5.412,2.883,10.476,2.883c1.919,0,4.397-0.912,7.435-2.733
			c1.721-1.008,3.285-2.095,4.705-3.267c1.412-1.158,2.627-2.449,3.646-3.867c0.507-0.607,0.908-0.455,1.216,0.457
			c0.703,1.723,0.956,3.695,0.756,5.92C478.283,162.312,477.927,163.422,477.423,163.929z"/>
		<path fill="#FFFFFF" d="M529.025,129.324c0,7.281-2.178,15.325-6.525,24.131c-6.581,13.259-15.841,19.885-27.775,19.885
			c-3.44,0-6.731-0.607-9.865-1.816c-7.086-3.038-10.63-8.705-10.63-17.004c0-4.552,1.064-10.116,3.188-16.697
			c2.63-7.791,7.286-14.215,13.969-19.272c5.865-4.456,11.383-6.78,16.545-6.987c2.525,0,4.144,0.512,4.853,1.52
			c1.012,1.316,0.607,2.481-1.215,3.487c-1.518,0.811-3.947,3.342-7.283,7.591c-4.453,5.365-7.793,10.528-10.018,15.483
			c-3.34,7.49-5.011,13.306-5.011,17.458c0,3.038,0.914,5.056,2.736,6.068c1.313,0.71,2.677,1.064,4.097,1.064
			c4.145,0,7.893-2.379,11.232-7.133c1.823-2.528,3.646-6.628,5.461-12.297c1.618-4.555,2.431-7.538,2.431-8.956
			c0-1.31-0.56-2.376-1.671-3.185c-2.229-1.62-3.34-4.148-3.34-7.592c0-6.479,2.784-9.717,8.351-9.717
			c1.822,0,3.74,0.563,5.769,1.676C527.456,118.854,529.025,122.946,529.025,129.324z"/>
	</g>
</g>
</svg>
