<?xml version="1.0" standalone="no"?>
<!DOCTYPE svg PUBLIC "-//W3C//DTD SVG 20010904//EN"
 "http://www.w3.org/TR/2001/REC-SVG-20010904/DTD/svg10.dtd">
<svg version="1.0" xmlns="http://www.w3.org/2000/svg"
 width="1000.000000pt" height="1000.000000pt" viewBox="0 0 1000.000000 1000.000000"
 preserveAspectRatio="xMidYMid meet">
<metadata>
Created by potrace 1.11, written by Peter Selinger 2001-2013
</metadata>
<g transform="translate(0.000000,1000.000000) scale(0.100000,-0.100000)"
fill="#000000" stroke="none">
<path d="M3515 8722 c-50 -23 -98 -71 -142 -139 -18 -29 -33 -54 -33 -56 0 -3
-25 -57 -55 -121 -30 -63 -55 -117 -55 -120 0 -2 -24 -55 -54 -117 -63 -133
-118 -252 -153 -329 -13 -30 -32 -71 -40 -90 -9 -19 -37 -80 -63 -135 -26 -55
-54 -116 -63 -135 -8 -19 -40 -88 -71 -154 -31 -65 -56 -122 -56 -127 0 -5
-17 -7 -37 -4 -21 2 -69 7 -108 10 -38 3 -92 8 -120 10 -73 7 -149 13 -240 20
-44 3 -100 7 -125 10 -25 2 -81 7 -125 10 -44 3 -96 8 -115 10 -19 2 -73 7
-120 10 -47 4 -101 8 -120 11 -96 12 -389 12 -455 0 -281 -52 -439 -193 -422
-379 2 -29 57 -221 121 -427 65 -206 147 -469 183 -585 35 -115 85 -275 110
-355 24 -80 69 -226 100 -325 30 -99 59 -189 63 -200 5 -11 20 -58 33 -105 14
-47 40 -130 57 -185 18 -55 39 -125 48 -155 9 -30 20 -57 24 -58 5 -2 5 -9 0
-15 -22 -28 -302 -647 -314 -697 -65 -253 72 -481 332 -554 30 -8 93 -22 140
-31 47 -9 95 -18 108 -21 39 -7 76 -14 112 -20 l35 -6 61 -201 c34 -111 83
-268 108 -349 82 -262 136 -438 206 -663 37 -121 89 -287 115 -370 25 -82 57
-169 71 -191 111 -193 411 -189 710 10 55 36 536 415 739 581 22 18 114 92
205 165 90 72 180 144 200 160 19 15 107 86 195 156 88 70 162 130 165 134 13
17 46 27 64 20 12 -4 39 -10 61 -13 36 -5 153 -28 380 -73 44 -8 91 -18 105
-20 200 -37 418 -79 515 -100 11 -2 34 -6 50 -9 17 -3 53 -10 80 -15 28 -5 61
-12 75 -14 159 -31 303 -58 385 -75 260 -51 303 -56 385 -39 159 31 218 165
159 358 -10 31 -148 305 -274 545 -23 44 -88 170 -145 280 -164 321 -223 430
-231 433 -5 2 12 19 37 38 54 42 637 506 644 514 3 3 173 139 378 303 206 164
372 304 369 310 -2 7 -18 57 -35 112 -17 55 -53 172 -81 260 -27 88 -68 221
-91 295 -23 74 -46 149 -51 165 -6 17 -28 86 -49 155 -63 207 -220 712 -235
760 -12 35 -20 45 -37 46 -31 1 -216 15 -248 19 -14 2 -68 6 -120 10 -52 4
-111 8 -130 10 -19 2 -71 6 -115 9 -84 7 -160 14 -235 21 -25 2 -88 7 -140 10
-52 4 -106 8 -120 10 -14 2 -65 6 -115 10 -49 3 -108 8 -130 10 -22 3 -76 7
-120 10 -191 14 -307 23 -375 30 -42 4 -72 6 -245 20 -38 3 -88 8 -110 10 -22
2 -83 7 -135 11 -119 8 -140 10 -144 15 -2 2 -45 85 -96 184 -51 99 -121 234
-155 300 -34 66 -95 183 -135 260 -40 77 -101 194 -135 260 -34 66 -104 201
-155 300 -93 180 -157 282 -201 320 -83 71 -179 92 -254 57z"/>
<path d="M7440 6805 c0 -3 18 -65 41 -138 22 -73 47 -154 55 -182 8 -27 18
-57 21 -65 3 -8 7 -19 8 -25 2 -5 55 -179 120 -385 110 -353 127 -407 174
-562 10 -35 32 -103 47 -151 l29 -88 225 181 c124 99 241 193 260 209 19 16
64 52 100 80 36 28 72 57 80 64 8 7 114 92 235 189 300 240 347 288 391 396
51 125 12 226 -113 294 -61 34 -186 66 -283 73 -41 3 -91 8 -110 10 -19 2 -73
7 -120 10 -47 3 -105 8 -130 10 -25 2 -79 7 -120 10 -111 8 -199 15 -250 20
-25 2 -79 7 -120 10 -41 3 -95 8 -120 10 -25 2 -78 7 -117 10 -123 9 -216 16
-260 21 -24 2 -43 2 -43 -1z"/>
</g>
</svg>
